<mxfile host="app.diagrams.net" agent="Mozilla/5.0 (Windows NT 10.0; Win64; x64) AppleWebKit/537.36 (KHTML, like Gecko) Chrome/134.0.0.0 Safari/537.36" version="26.1.1">
  <diagram name="Strona-1" id="cNEC_kMl5BXK5NAshigK">
    <mxGraphModel dx="676" dy="345" grid="1" gridSize="10" guides="1" tooltips="1" connect="1" arrows="1" fold="1" page="1" pageScale="1" pageWidth="827" pageHeight="1169" math="0" shadow="0">
      <root>
        <mxCell id="0" />
        <mxCell id="1" parent="0" />
        <mxCell id="1u4w7aMmMv60DK7WSl1Z-7" value="PC15" style="text;html=1;align=center;verticalAlign=middle;whiteSpace=wrap;rounded=0;" vertex="1" parent="1">
          <mxGeometry x="370" y="210" width="20" height="20" as="geometry" />
        </mxCell>
        <mxCell id="1u4w7aMmMv60DK7WSl1Z-8" value="PE15" style="text;html=1;align=center;verticalAlign=middle;whiteSpace=wrap;rounded=0;" vertex="1" parent="1">
          <mxGeometry x="410" y="210" width="20" height="20" as="geometry" />
        </mxCell>
        <mxCell id="1u4w7aMmMv60DK7WSl1Z-9" value="PC14" style="text;html=1;align=center;verticalAlign=middle;whiteSpace=wrap;rounded=0;" vertex="1" parent="1">
          <mxGeometry x="370" y="240" width="20" height="20" as="geometry" />
        </mxCell>
        <mxCell id="1u4w7aMmMv60DK7WSl1Z-10" value="PE14" style="text;html=1;align=center;verticalAlign=middle;whiteSpace=wrap;rounded=0;" vertex="1" parent="1">
          <mxGeometry x="410" y="240" width="20" height="20" as="geometry" />
        </mxCell>
        <mxCell id="1u4w7aMmMv60DK7WSl1Z-11" value="PC13" style="text;html=1;align=center;verticalAlign=middle;whiteSpace=wrap;rounded=0;" vertex="1" parent="1">
          <mxGeometry x="370" y="270" width="20" height="20" as="geometry" />
        </mxCell>
        <mxCell id="1u4w7aMmMv60DK7WSl1Z-12" value="PE13" style="text;html=1;align=center;verticalAlign=middle;whiteSpace=wrap;rounded=0;" vertex="1" parent="1">
          <mxGeometry x="410" y="270" width="20" height="20" as="geometry" />
        </mxCell>
        <mxCell id="1u4w7aMmMv60DK7WSl1Z-13" value="PC12" style="text;html=1;align=center;verticalAlign=middle;whiteSpace=wrap;rounded=0;" vertex="1" parent="1">
          <mxGeometry x="370" y="300" width="20" height="20" as="geometry" />
        </mxCell>
        <mxCell id="1u4w7aMmMv60DK7WSl1Z-14" value="PE12" style="text;html=1;align=center;verticalAlign=middle;whiteSpace=wrap;rounded=0;" vertex="1" parent="1">
          <mxGeometry x="410" y="300" width="20" height="20" as="geometry" />
        </mxCell>
        <mxCell id="1u4w7aMmMv60DK7WSl1Z-15" value="PC11" style="text;html=1;align=center;verticalAlign=middle;whiteSpace=wrap;rounded=0;" vertex="1" parent="1">
          <mxGeometry x="370" y="330" width="20" height="20" as="geometry" />
        </mxCell>
        <mxCell id="1u4w7aMmMv60DK7WSl1Z-16" value="PE11" style="text;html=1;align=center;verticalAlign=middle;whiteSpace=wrap;rounded=0;" vertex="1" parent="1">
          <mxGeometry x="410" y="330" width="20" height="20" as="geometry" />
        </mxCell>
        <mxCell id="1u4w7aMmMv60DK7WSl1Z-17" value="PC10" style="text;html=1;align=center;verticalAlign=middle;whiteSpace=wrap;rounded=0;" vertex="1" parent="1">
          <mxGeometry x="370" y="360" width="20" height="20" as="geometry" />
        </mxCell>
        <mxCell id="1u4w7aMmMv60DK7WSl1Z-18" value="PE10" style="text;html=1;align=center;verticalAlign=middle;whiteSpace=wrap;rounded=0;" vertex="1" parent="1">
          <mxGeometry x="410" y="360" width="20" height="20" as="geometry" />
        </mxCell>
        <mxCell id="1u4w7aMmMv60DK7WSl1Z-19" value="PC9" style="text;html=1;align=center;verticalAlign=middle;whiteSpace=wrap;rounded=0;" vertex="1" parent="1">
          <mxGeometry x="370" y="390" width="20" height="20" as="geometry" />
        </mxCell>
        <mxCell id="1u4w7aMmMv60DK7WSl1Z-20" value="PE9" style="text;html=1;align=center;verticalAlign=middle;whiteSpace=wrap;rounded=0;" vertex="1" parent="1">
          <mxGeometry x="410" y="390" width="20" height="20" as="geometry" />
        </mxCell>
        <mxCell id="1u4w7aMmMv60DK7WSl1Z-21" value="PC8" style="text;html=1;align=center;verticalAlign=middle;whiteSpace=wrap;rounded=0;" vertex="1" parent="1">
          <mxGeometry x="370" y="420" width="20" height="20" as="geometry" />
        </mxCell>
        <mxCell id="1u4w7aMmMv60DK7WSl1Z-22" value="PE8" style="text;html=1;align=center;verticalAlign=middle;whiteSpace=wrap;rounded=0;" vertex="1" parent="1">
          <mxGeometry x="410" y="420" width="20" height="20" as="geometry" />
        </mxCell>
        <mxCell id="1u4w7aMmMv60DK7WSl1Z-25" value="" style="rounded=0;whiteSpace=wrap;html=1;fillColor=none;" vertex="1" parent="1">
          <mxGeometry x="350" y="200" width="100" height="250" as="geometry" />
        </mxCell>
        <mxCell id="1u4w7aMmMv60DK7WSl1Z-26" value="GPIO connector 1" style="text;html=1;align=center;verticalAlign=middle;whiteSpace=wrap;rounded=0;" vertex="1" parent="1">
          <mxGeometry x="345" y="170" width="110" height="30" as="geometry" />
        </mxCell>
      </root>
    </mxGraphModel>
  </diagram>
</mxfile>
